<svg width="176" height="105" viewBox="0 0 176 105" fill="none" xmlns="http://www.w3.org/2000/svg">
<g filter="url(#filter0_d_14_29)">
<path fill-rule="evenodd" clip-rule="evenodd" d="M105.704 74.9357C105.677 78.7028 105.65 82.4699 105.116 86.2081C104.811 86.4538 95.5568 87.9159 95.2305 87.7698L94.9692 50.2579C94.0783 50.5262 93.1875 50.7954 92.3194 51.1001C92.0254 56.8813 91.9617 62.6689 91.898 68.4565C91.8238 75.1937 91.7497 81.9309 91.3122 88.658C91.1556 88.7725 84.1427 90.2243 83.7346 90.2268C83.3692 77.8811 83.4337 65.5314 83.4982 53.1817C83.5587 41.6024 83.6191 30.0223 83.3253 18.4465L83.3178 18.4466C83.2822 18.4471 83.2468 18.456 82.697 18.5938C82.1094 18.741 80.9342 19.0355 78.5431 19.6245C73.761 20.8025 51.9993 27.9058 42.5409 32.781C27.0947 40.7425 18.4809 48.8924 14.9526 58.8835C14.0903 61.3253 13.9951 62.0306 13.9857 66.0465C13.9746 70.8065 14.35 72.8531 15.766 75.7522C16.9998 78.2784 18.2392 79.7511 20.5762 81.468C25.3462 85.4992 29.7124 88.0624 35.8861 90.1072L34.8769 89.2272L24.4355 77.8999C16.0654 63.8999 21.4745 53.7181 29.6609 45.9185L39.6937 37.453C43.943 42.7937 48.8066 45.9022 53.4063 48.842C61.8956 54.2678 69.486 59.1191 70.657 76.3689C72.4624 102.965 70.657 27.2186 70.657 27.2186L79.8249 23.5544V78.3905V90.6272H78.0831L63.6261 93.4272L51.0757 94.6999L41.3599 93.6135C23.6347 92.564 14.1114 88.6136 8.48865 80.4283C4.74336 74.9762 3.04206 66.1329 4.54435 59.926C6.402 52.2508 12.6536 44.3795 23.2069 36.4281C35.8496 26.9025 53.4092 18.4465 69.5389 13.6059C79.4514 10.631 80.463 10.3386 80.704 10.2689L80.7583 10.2531C80.7951 10.2423 80.8315 10.231 80.9526 10.1937C81.1271 10.1399 81.4775 10.0318 82.254 9.79384C103.39 3.31627 114.53 0.818759 125.393 0.122926C136.876 -0.612625 144.27 1.95881 147.11 7.67545C149.656 12.8001 148.825 18.8692 144.811 24.4793C139.424 32.0074 125.833 39.8209 109.687 44.6729C106.294 45.6927 106.117 45.7833 106.117 46.4993C106.117 46.9136 106.243 47.2144 106.397 47.1677C111.95 45.3887 117.322 43.2724 122.696 41.1552L122.77 41.1258C129.725 38.386 136.169 35.8471 151.193 21.553L150.497 22.863L150.496 22.8651C147.638 28.2453 141.609 39.5989 141.392 39.7421C135.464 45.3285 133.495 46.3353 127.921 49.1864C127.677 49.311 127.427 49.4391 127.169 49.5713L127.165 49.5733C123.657 51.3702 120.15 53.1672 116.649 54.9712C124.665 60.0988 133.028 64.9421 141.392 69.7857C151.713 75.7626 162.034 81.7399 171.704 88.2523L171.783 96.2578C162.073 91.7304 152.573 86.9538 143.072 82.1769L143.07 82.1761C130.927 76.0704 118.782 69.964 106.196 64.3765C105.754 67.8808 105.729 71.4085 105.704 74.9357ZM151.229 21.5181C152.333 19.4117 152.107 19.8327 151.193 21.553L151.229 21.5181ZM96.0226 25.3662L105.072 24.7572C105.304 27.1198 105.18 29.5151 105.056 31.9125C104.897 34.9931 104.737 38.0769 105.333 41.0987C105.477 41.0974 107.319 40.487 109.426 39.7421C126.577 33.6808 137.067 24.544 137.171 15.5765C137.246 9.08312 129.761 7.15239 114.291 9.67521C109.604 10.4395 102.591 12.0819 96.3696 13.8723L91.7224 15.2096L92.1823 45.9795L95.8401 44.4365L96.0226 25.3662Z" fill="url(#paint0_linear_14_29)" shape-rendering="crispEdges"/>
</g>
<defs>
<filter id="filter0_d_14_29" x="0" y="0" width="175.783" height="104.258" filterUnits="userSpaceOnUse" color-interpolation-filters="sRGB">
<feFlood flood-opacity="0" result="BackgroundImageFix"/>
<feColorMatrix in="SourceAlpha" type="matrix" values="0 0 0 0 0 0 0 0 0 0 0 0 0 0 0 0 0 0 127 0" result="hardAlpha"/>
<feOffset dy="4"/>
<feGaussianBlur stdDeviation="2"/>
<feComposite in2="hardAlpha" operator="out"/>
<feColorMatrix type="matrix" values="0 0 0 0 0 0 0 0 0 0 0 0 0 0 0 0 0 0 0.25 0"/>
<feBlend mode="normal" in2="BackgroundImageFix" result="effect1_dropShadow_14_29"/>
<feBlend mode="normal" in="SourceGraphic" in2="effect1_dropShadow_14_29" result="shape"/>
</filter>
<linearGradient id="paint0_linear_14_29" x1="50.0318" y1="23.5544" x2="50.0318" y2="94.6999" gradientUnits="userSpaceOnUse">
<stop stop-color="#1C225D"/>
<stop offset="1" stop-color="#1C225D" stop-opacity="0"/>
</linearGradient>
</defs>
</svg>
